<svg xmlns="http://www.w3.org/2000/svg" data-name="Layer 1" viewBox="0 0 3597.13 587.22"><g fill="currentColor"><path d="M130.25 556.49c-22.32.22-45.52-2.25-68.31-7.9-16.27-4.04-32.08-9.55-47.48-16.17-3.82-1.64-7.32-3.82-10.2-7.03-5.17-5.78-5.22-12.23-2.37-18.74 3.11-7.09 7.79-13.36 11.81-19.96 18.41-30.16 33.52-61.86 45.59-95.06 8.36-23.02 15.78-46.37 24.4-69.28 9.09-24.16 20.49-47.14 35.93-67.87 22.46-30.16 50.71-52.69 86.99-64.16 14.51-4.59 29.41-6.87 44.64-7.19 20.27-.42 39.99 2.41 59.08 9.31 21.21 7.67 39.25 20.13 54.59 36.56 19.32 20.69 32.33 44.84 39.34 72.24 3.84 15.01 5.56 30.27 4.92 45.74-1.22 29.62-9.52 57.21-24.24 82.89-9.88 17.23-22 32.74-36.33 46.48-16.42 15.74-34.73 28.93-54.62 39.95-25.07 13.89-51.67 23.86-79.48 30.62-16.12 3.92-32.46 6.53-48.99 8.05-11.36 1.05-22.73 1.57-35.29 1.54h.03Zm1.52-36.89c1.36-.07 2.71-.19 4.07-.2 25.1-.21 49.86-3.27 74.14-9.57 33.23-8.62 64.21-22.15 91.98-42.63 25.61-18.89 45.96-42.09 58.68-71.51 9.34-21.63 13.4-44.23 10.9-67.73-2.15-20.28-8.85-39.08-20.01-56.19-10.68-16.37-24.2-29.81-41.58-39.05-12.86-6.84-26.69-10.36-41.13-11.88-13.65-1.43-27.14-.71-40.56 2.05-23.71 4.89-43.56 16.87-61.01 33.25-15.21 14.28-26.38 31.48-35.93 49.84-8.43 16.2-14.68 33.28-20.52 50.53-7.74 22.88-15.75 45.65-24.55 68.13-10.53 26.93-23.76 52.51-38.57 77.29-1.75 2.93-1.73 3.01.97 3.97 26.86 9.64 54.64 13.76 83.09 13.69ZM396.21 109.26c-.93 24.96-6.76 48.73-17.71 71.2-1.82 3.74-3.83 7.4-5.82 11.06-1.59 2.92-2.88 2.94-4.74.18-9.84-14.58-16.08-30.64-19.74-47.79-2.8-13.11-4.52-26.32-3.92-39.73.63-14.15 3.6-27.96 6.63-41.75 4.44-20.19 10.05-40.06 16.27-59.77.39-1.23.72-2.64 2.3-2.68 1.5-.04 1.8 1.33 2.17 2.46 8.89 27.17 16.76 54.61 22.06 82.72 1.5 7.95 2.54 15.95 2.5 24.1v-.02ZM464.38 176c21.41.11 38.42 2.7 55.2 6.93 1.26.32 2.57.64 2.84 2.17.28 1.56-.9 2.31-2 2.94-24.1 13.79-49.29 24.61-77.19 27.63-19.16 2.07-37.82-.19-55.75-7.55-3.22-1.32-3.47-2.55-.96-4.87 11.53-10.62 25.34-16.96 40.18-21.31 13.62-3.99 27.52-6.11 37.68-5.95h.01Z"/><path d="M348.08 343.78c.23 12.78-3.32 25.39-8.7 37.57-8 18.08-18.72 34.38-32.98 48.1-15.02 14.46-32.04 26.31-50.21 36.5-1.48.83-2.98 1.64-4.47 2.47-1.84 1.03-3.7 1.68-5.16-.48-1.08-1.6-.13-3.28 2.57-4.71 5.57-2.93 11.03-6.06 16.32-9.47 13.68-8.81 26.99-18.18 38.37-29.87 17.42-17.92 30.23-38.68 36.45-63.1 3.41-13.4 2.25-26.84-.36-40.23-.7-3.59-.15-5.44 1.83-5.78 1.88-.32 3.1 1.08 3.81 4.52 1.61 7.85 2.57 15.78 2.54 24.49h-.01Z"/></g><g fill="currentColor"><path d="M745.36 259.8c9.97 3.99 19.02 10.97 27.14 20.94 6.55 8.12 10.97 18.1 13.25 29.92 1.42 7.84 2.14 19.31 2.14 34.41l-.43 146.82h-62.4V343.57c0-8.83-1.43-16.1-4.27-21.8-5.42-10.83-15.39-16.24-29.92-16.24-16.81 0-28.43 6.98-34.84 20.95-3.28 7.41-4.92 16.32-4.92 26.72v138.7h-61.34V353.2c0-13.82-1.43-23.86-4.27-30.14-5.13-11.25-15.17-16.88-30.14-16.88-17.39 0-29.07 5.63-35.05 16.88-3.28 6.41-4.92 15.96-4.92 28.64v140.2h-61.77V259.38h59.2v33.98c7.55-12.11 14.67-20.73 21.37-25.86 11.83-9.12 27.14-13.68 45.95-13.68 17.81 0 32.2 3.92 43.17 11.75 8.83 7.27 15.53 16.6 20.09 28 7.98-13.68 17.88-23.72 29.71-30.14 12.54-6.41 26.5-9.62 41.89-9.62 10.26 0 20.37 2 30.35 5.98l.02.02ZM936.15 350.2c11.34-1.42 19.45-3.21 24.33-5.34 8.76-3.7 13.13-9.47 13.13-17.31 0-9.54-3.36-16.14-10.08-19.77-6.72-3.63-16.57-5.45-29.57-5.45-14.59 0-24.92 3.56-30.98 10.69-4.33 5.27-7.22 12.4-8.67 21.37h-58.78c1.29-20.38 7.01-37.12 17.17-50.23 16.17-20.52 43.93-30.78 83.28-30.78 25.61 0 48.37 5.06 68.25 15.17 19.89 10.12 29.83 29.21 29.83 57.28v106.85c0 7.41.14 16.39.43 26.93.43 7.98 1.64 13.4 3.63 16.24 1.99 2.85 4.99 5.2 8.98 7.05v8.98h-66.25c-1.85-4.7-3.14-9.12-3.85-13.25-.71-4.13-1.28-8.83-1.71-14.11-8.46 9.12-18.2 16.88-29.24 23.3-13.18 7.55-28.09 11.33-44.72 11.33-21.21 0-38.73-6.02-52.56-18.06s-20.75-29.1-20.75-51.19c0-28.64 11.12-49.37 33.37-62.18 12.2-6.98 30.15-11.97 53.83-14.96l20.89-2.57h.03Zm37.24 28.43c-3.9 2.42-7.84 4.38-11.81 5.88s-9.42 2.89-16.36 4.17l-13.87 2.56c-13 2.28-22.33 5.06-28 8.33-9.59 5.56-14.39 14.18-14.39 25.86 0 10.4 2.93 17.92 8.79 22.55 5.86 4.63 12.98 6.95 21.38 6.95 13.31 0 25.57-3.85 36.78-11.54s17.03-21.73 17.47-42.1v-22.66h.01ZM1275.14 272.31c15.25 12.61 22.88 33.52 22.88 62.72V491.9h-62.41V350.21c0-12.25-1.63-21.66-4.88-28.21-5.94-11.97-17.26-17.95-33.95-17.95-20.51 0-34.58 8.76-42.22 26.29-3.96 9.26-5.94 21.09-5.94 35.48v126.09h-60.91V259.39h58.99v33.98c7.8-11.97 15.18-20.59 22.13-25.86 12.48-9.4 28.31-14.11 47.46-14.11 23.98 0 43.59 6.31 58.85 18.92ZM1469.89 258.74c14.8 6.13 26.75 17.39 35.86 33.77v-33.56h59.42v220.98c0 30.06-5.06 52.72-15.17 67.96-17.39 26.21-50.73 39.33-100.01 39.33-29.78 0-54.07-5.84-72.87-17.53-18.81-11.68-29.21-29.14-31.2-52.36h66.25c1.71 7.12 4.49 12.25 8.34 15.39 6.55 5.56 17.6 8.33 33.13 8.33 21.94 0 36.62-7.34 44.03-22.01 4.84-9.4 7.27-25.22 7.27-47.45v-14.96c-5.84 9.98-12.11 17.46-18.81 22.44-12.11 9.26-27.86 13.89-47.23 13.89-29.92 0-53.83-10.51-71.7-31.52-17.88-21.02-26.82-49.48-26.82-85.37s8.61-63.71 25.83-87.3c17.22-23.58 41.62-35.37 73.21-35.37 11.67 0 21.84 1.78 30.52 5.34h-.04Zm20.74 167.02c9.79-10.76 14.69-27.89 14.69-51.4 0-22.08-4.65-38.9-13.94-50.44s-21.74-17.31-37.35-17.31c-21.29 0-35.97 10.05-44.06 30.14-4.26 10.69-6.39 23.87-6.39 39.54 0 13.54 2.27 25.58 6.81 36.12 8.23 19.66 22.99 29.49 44.27 29.49 14.19 0 26.18-5.38 35.97-16.14ZM1816.28 463.39c-19.66 24.27-49.52 36.41-89.54 36.41s-69.88-12.14-89.54-36.41-29.49-53.49-29.49-87.65 9.83-62.7 29.49-87.33 49.51-36.95 89.54-36.95 69.88 12.32 89.54 36.95 29.49 53.74 29.49 87.33-9.83 63.38-29.49 87.65Zm-48.73-33.66c9.54-12.66 14.32-30.66 14.32-54s-4.78-41.3-14.32-53.89c-9.55-12.59-23.23-18.89-41.04-18.89s-31.52 6.3-41.14 18.89c-9.62 12.59-14.43 30.55-14.43 53.89s4.81 41.33 14.43 54c9.62 12.66 23.33 18.99 41.14 18.99s31.49-6.33 41.04-18.99ZM2040.35 275.19c16.17 12.54 25.89 34.13 29.17 64.75h-37.4c-2.28-14.11-7.48-25.82-15.6-35.16-8.12-9.33-21.16-14-39.11-14-24.51 0-42.04 11.97-52.58 35.91-6.84 15.53-10.26 34.7-10.26 57.49s4.84 42.25 14.53 57.92c9.69 15.68 24.93 23.51 45.74 23.51 15.96 0 28.6-4.88 37.94-14.64 9.33-9.76 15.78-23.12 19.34-40.07h37.4c-4.27 30.35-14.96 52.54-32.06 66.57-17.1 14.04-38.97 21.05-65.61 21.05-29.92 0-53.79-10.93-71.59-32.81-17.81-21.87-26.72-49.19-26.72-81.95 0-40.18 9.76-71.45 29.28-93.82s44.38-33.56 74.58-33.56c25.79 0 46.77 6.27 62.93 18.81h.02ZM2230.65 353.19c8.83-1.14 14.75-4.84 17.74-11.11 1.71-3.42 2.56-8.34 2.56-14.75 0-13.11-4.67-22.62-14-28.53s-22.69-8.87-40.07-8.87c-20.09 0-34.34 5.42-42.75 16.24-4.7 5.98-7.77 14.89-9.19 26.72h-35.91c.71-28.21 9.86-47.84 27.46-58.88s38.01-16.56 61.23-16.56c26.93 0 48.8 5.13 65.6 15.39 16.67 10.26 25.01 26.22 25.01 47.88v131.86c0 3.99.82 7.2 2.46 9.62 1.64 2.42 5.09 3.63 10.37 3.63 1.71 0 3.63-.11 5.77-.32a88.8 88.8 0 0 0 6.84-.96v28.43c-5.98 1.71-10.55 2.78-13.68 3.21-3.14.43-7.41.64-12.82.64-13.25 0-22.87-4.7-28.85-14.11-3.14-4.99-5.34-12.04-6.62-21.16-7.84 10.26-19.1 19.17-33.77 26.72-14.68 7.55-30.85 11.33-48.52 11.33-21.23 0-38.58-6.45-52.04-19.34s-20.2-29.03-20.2-48.41c0-21.23 6.63-37.69 19.88-49.37s30.63-18.88 52.15-21.59l61.34-7.69v-.03Zm-80.99 104.08c8.12 6.41 17.74 9.62 28.85 9.62 13.54 0 26.64-3.13 39.33-9.4 21.37-10.4 32.06-27.43 32.06-51.08v-30.99c-4.7 2.99-10.76 5.49-18.17 7.48-7.41 2-14.68 3.42-21.8 4.27l-23.3 2.99c-13.97 1.85-24.44 4.78-31.42 8.76-11.83 6.7-17.74 17.39-17.74 32.06 0 11.11 4.06 19.88 12.18 26.29ZM2351.4 263.01h36.55v32.49c10.83-13.39 22.3-23.01 34.41-28.85 12.11-5.84 25.57-8.76 40.39-8.76 32.49 0 54.43 11.33 65.82 33.98 6.27 12.4 9.4 30.14 9.4 53.22v146.82h-39.11V347.65c0-13.96-2.07-25.22-6.2-33.77-6.84-14.25-19.24-21.37-37.19-21.37-9.12 0-16.6.93-22.44 2.78-10.55 3.14-19.81 9.4-27.79 18.81-6.41 7.55-10.58 15.36-12.5 23.4-1.92 8.05-2.88 19.56-2.88 34.52v119.89h-38.47V263.03ZM2594.82 263.01h36.55v32.49c10.83-13.39 22.3-23.01 34.41-28.85 12.11-5.84 25.57-8.76 40.39-8.76 32.49 0 54.43 11.33 65.82 33.98 6.27 12.4 9.4 30.14 9.4 53.22v146.82h-39.11V347.65c0-13.96-2.07-25.22-6.2-33.77-6.84-14.25-19.24-21.37-37.19-21.37-9.12 0-16.6.93-22.44 2.78-10.55 3.14-19.81 9.4-27.79 18.81-6.41 7.55-10.58 15.36-12.5 23.4-1.92 8.05-2.88 19.56-2.88 34.52v119.89h-38.47V263.03ZM2960.9 353.19c8.83-1.14 14.75-4.84 17.74-11.11 1.71-3.42 2.56-8.34 2.56-14.75 0-13.11-4.67-22.62-14-28.53s-22.69-8.87-40.07-8.87c-20.09 0-34.34 5.42-42.75 16.24-4.7 5.98-7.77 14.89-9.19 26.72h-35.91c.71-28.21 9.86-47.84 27.46-58.88s38.01-16.56 61.23-16.56c26.93 0 48.8 5.13 65.6 15.39 16.67 10.26 25.01 26.22 25.01 47.88v131.86c0 3.99.82 7.2 2.46 9.62 1.64 2.42 5.09 3.63 10.37 3.63 1.71 0 3.63-.11 5.77-.32a88.8 88.8 0 0 0 6.84-.96v28.43c-5.98 1.71-10.55 2.78-13.68 3.21-3.14.43-7.41.64-12.82.64-13.25 0-22.87-4.7-28.85-14.11-3.14-4.99-5.34-12.04-6.62-21.16-7.84 10.26-19.1 19.17-33.77 26.72-14.68 7.55-30.85 11.33-48.52 11.33-21.23 0-38.58-6.45-52.04-19.34s-20.2-29.03-20.2-48.41c0-21.23 6.63-37.69 19.88-49.37s30.63-18.88 52.15-21.59l61.34-7.69v-.03Zm-80.99 104.08c8.12 6.41 17.74 9.62 28.85 9.62 13.54 0 26.64-3.13 39.33-9.4 21.37-10.4 32.06-27.43 32.06-51.08v-30.99c-4.7 2.99-10.76 5.49-18.17 7.48-7.41 2-14.68 3.42-21.8 4.27l-23.3 2.99c-13.97 1.85-24.44 4.78-31.42 8.76-11.83 6.7-17.74 17.39-17.74 32.06 0 11.11 4.06 19.88 12.18 26.29ZM3078.66 176.89h37.4V290.8c8.41-10.97 18.45-19.34 30.14-25.11 11.68-5.77 24.37-8.66 38.04-8.66 28.5 0 51.62 9.8 69.34 29.39 17.74 19.59 26.61 48.48 26.61 86.66 0 36.19-8.76 66.25-26.29 90.18-17.53 23.94-41.82 35.91-72.87 35.91-17.39 0-32.06-4.2-44.03-12.61-7.13-4.99-14.75-12.96-22.87-23.94v29.28h-35.48V176.89h.01Zm146.71 263.51c10.33-16.53 15.5-38.33 15.5-65.39 0-24.08-5.17-44.03-15.5-59.84-10.33-15.82-25.54-23.72-45.63-23.72-17.53 0-32.88 6.49-46.06 19.45-13.18 12.97-19.77 34.34-19.77 64.11 0 21.52 2.71 38.97 8.12 52.36 10.12 25.22 28.99 37.83 56.64 37.83 20.8 0 36.37-8.26 46.7-24.79ZM3325.07 177.96h39.11v43.6h-39.11v-43.6Zm0 86.12h39.11v227.81h-39.11V264.08ZM3445.17 420.09c1.14 12.82 4.34 22.66 9.62 29.49 9.69 12.4 26.5 18.59 50.44 18.59 14.25 0 26.79-3.1 37.62-9.3 10.83-6.2 16.24-15.78 16.24-28.75 0-9.83-4.35-17.31-13.04-22.44-5.56-3.13-16.53-6.77-32.91-10.9l-30.56-7.69c-19.52-4.84-33.91-10.26-43.17-16.24-16.53-10.4-24.79-24.79-24.79-43.17 0-21.66 7.8-39.18 23.4-52.58 15.6-13.39 36.58-20.09 62.93-20.09 34.48 0 59.34 10.12 74.58 30.35 9.54 12.82 14.18 26.65 13.89 41.46h-36.33c-.71-8.69-3.78-16.6-9.19-23.72-8.84-10.12-24.15-15.17-45.95-15.17-14.53 0-25.54 2.78-33.02 8.34s-11.22 12.9-11.22 22.01c0 9.98 4.92 17.95 14.75 23.94 5.7 3.56 14.11 6.7 25.22 9.4l25.43 6.2c27.64 6.7 46.17 13.18 55.57 19.45 14.96 9.83 22.44 25.29 22.44 46.38s-7.73 37.97-23.19 52.79-39.01 22.23-70.63 22.23c-34.06 0-58.17-7.73-72.34-23.19-14.18-15.46-21.77-34.59-22.76-57.39h36.97Z"/></g></svg>