<svg xmlns="http://www.w3.org/2000/svg" data-name="Layer 1" viewBox="0 0 800 800"><path fill="currentColor" fill-rule="evenodd" d="M750 500c0 27.6-22.4 50-50 50H300c-27.6 0-50-22.4-50-50V100c0-27.6 22.4-50 50-50h400c27.6 0 50 22.4 50 50v400ZM700 0H300c-55.22 0-100 44.78-100 100v400c0 55.22 44.78 100 100 100h400c55.22 0 100-44.78 100-100V100C800 44.78 755.22 0 700 0ZM550 700c0 27.6-22.4 50-50 50H100c-27.6 0-50-22.4-50-50V300c0-27.6 22.4-50 50-50h50v-50h-50C44.78 200 0 244.78 0 300v400c0 55.22 44.78 100 100 100h400c55.22 0 100-44.78 100-100v-50h-50v50Z"/></svg>