<svg xmlns="http://www.w3.org/2000/svg" data-name="Layer 1" viewBox="0 0 583.33 716.67"><path fill="currentColor" fill-rule="evenodd" d="m524.62 198.88-61.03-49.41c5.38-.47 11.18-1.47 17.07-3.91a58.352 58.352 0 0 0 31.57-31.57c2.74-6.62 3.66-13.13 4.06-19.05.38-5.51.38-12.07.38-19.21v-1.45c0-7.14 0-13.7-.38-19.21-.4-5.92-1.32-12.43-4.06-19.05a58.352 58.352 0 0 0-31.57-31.57C474.04 1.71 467.53.79 461.61.38 456.1 0 449.53 0 442.39 0H140.94c-7.14 0-13.7 0-19.21.38-5.92.4-12.43 1.32-19.05 4.07a58.352 58.352 0 0 0-31.57 31.57c-2.74 6.62-3.66 13.13-4.07 19.05-.38 5.51-.38 12.07-.38 19.22v1.45c0 7.14 0 13.7.38 19.22.4 5.92 1.32 12.43 4.07 19.05a58.352 58.352 0 0 0 31.57 31.57c6.32 2.62 12.55 3.58 18.26 4.01L59.43 198.8C21.86 228.83 0 274.32 0 322.42V543.4c0 37.04 12.99 72.91 36.7 101.36l1.17 1.41C48.94 659.45 56.06 668 64.06 675.3a158.284 158.284 0 0 0 85.19 39.9c10.74 1.47 21.86 1.47 39.15 1.47h224.66c47.31 0 92.15-21.16 122.22-57.68l11.94-14.5a158.365 158.365 0 0 0 36.11-100.65V321.95c0-47.78-21.57-93-58.71-123.06ZM117.34 94.96c-.06-.24-.27-1.19-.42-3.42-.25-3.6-.26-8.43-.26-16.54s.01-12.94.26-16.54c.15-2.23.36-3.17.42-3.42a8.37 8.37 0 0 1 4.37-4.37c.25-.06 1.19-.27 3.42-.42 3.6-.25 8.43-.26 16.54-.26h300c8.11 0 12.94.01 16.54.26 2.23.15 3.17.36 3.42.42a8.37 8.37 0 0 1 4.37 4.37c.06.25.27 1.19.42 3.42.25 3.6.26 8.43.26 16.54s-.01 12.94-.26 16.54c-.15 2.23-.35 3.17-.42 3.42a8.37 8.37 0 0 1-4.37 4.37c-.25.06-1.19.27-3.42.42-3.6.25-8.43.26-16.54.26H141.68c-8.11 0-12.94-.01-16.54-.26-2.23-.15-3.17-.36-3.42-.42a8.37 8.37 0 0 1-4.37-4.37ZM90.66 237.82l80.1-64.08c19.42-15.53 24.73-19.37 30.5-21.39 5.77-2.02 12.31-2.35 37.18-2.35h107.99c25.09 0 31.7.33 37.51 2.39 5.81 2.06 11.15 5.96 30.66 21.74l78.58 63.61c10.11 8.18 18.53 18 25.01 28.92H65.45c6.55-10.91 15.04-20.7 25.21-28.84Zm253.5 282.7c8.28 4.9 27.74 23.63 31.13 29.97 1.51 2.82 1.26 3.01-3.92 3.01-9.15 0-26.78-5.25-39.22-11.67-8.78-4.54-14.79-9.11-23.95-18.24l-12.23-12.18 3.96 19.26c2.18 10.6 3.99 20.39 4.02 21.76.05 2.14-1.3 2.5-9.13 2.5-5.06 0-9.48-.47-9.82-1.08-.35-.57.56-9.08 2.02-18.89 3.75-25.2 3.89-24.71-4.55-15.24-16.74 18.79-46.48 33.69-67.37 33.77l-5.43.02 2.58-4.46c4.31-7.46 19.17-21.94 28.68-27.95l8.98-5.67-16.83-.87c-25.48-1.32-47.68-7.8-69.65-20.32-6.25-3.56-11.92-7.04-12.62-7.73-1.44-1.43 12.7-6.12 26.43-8.75 13.07-2.51 42.56-2.18 55.33.61 5.83 1.27 10.77 2.16 10.97 1.95.21-.23-4.16-3.89-9.7-8.18-27.3-21.2-52.61-57.79-64.49-93.24-3.56-10.63-4.51-15.18-3.16-15.18 2.26 0 25.83 10.95 34.18 15.87 23.28 13.74 46.23 34.67 61.6 56.19 4.49 6.28 7.78 10.13 7.33 8.56-3.06-10.6-4.38-24.56-4.39-46.38-.01-27.56 1.82-40.33 9.31-64.93 4.37-14.33 16.49-42.09 18.39-42.09 1.42 0 10.65 20.53 14.85 33.06 11.76 35.04 15.12 78.29 8.7 111.86-1.19 6.23-2.17 11.93-2.17 12.67s3.62-3.94 8.05-10.42c20.03-29.27 50.43-54.41 82.75-68.42 16.89-7.32 16.31-7.38 14.01 1.43-9.28 35.51-36.86 76.92-67.44 101.27-5.74 4.57-10.12 8.31-9.72 8.31s4.77-.92 9.73-2.04c21.03-4.78 44.98-4.15 67.64 1.81 16.33 4.29 16.71 4.81 7.63 10.6-22.59 14.41-46.74 21.89-75.86 23.48l-15.31.85 8.67 5.13Zm164.47 92.18-11.94 14.5a108.331 108.331 0 0 1-83.63 39.47H190.23c-19.73 0-27.24-.05-34.18-1.01a108.346 108.346 0 0 1-58.29-27.3c-5.17-4.72-10.02-10.46-22.65-25.61-7.4-8.88-13.28-18.82-17.48-29.41h468.24a108.202 108.202 0 0 1-17.25 29.37Z"/></svg>