<svg data-name="Layer 1" xmlns="http://www.w3.org/2000/svg" viewBox="0 0 632 632.42"><path d="M632 285.89v60.63a24.84 24.84 0 0 1-19.37 23.58l-50.11 8.42c-1.54.19-3.09.19-4.63 0a248.18 248.18 0 0 1-26.53 64.42 19.3 19.3 0 0 1 2.95 3.79l29.47 41.26a24.85 24.85 0 0 1-2.95 30.32l-42.95 42.95a24.87 24.87 0 0 1-30.32 2.53l-41.26-29.05a18.04 18.04 0 0 1-3.79-2.95 248.57 248.57 0 0 1-64.84 26.53c.46 2.51.46 5.07 0 7.58l-7.58 44.21a28.22 28.22 0 0 1-26.95 22.32H288.4a28.21 28.21 0 0 1-26.95-22.32l-7.58-44.21a20.99 20.99 0 0 1 0-7.58 248.23 248.23 0 0 1-64.84-26.53 18.73 18.73 0 0 1-3.79 2.95l-41.26 29.47a24.85 24.85 0 0 1-30.32-2.95l-42.95-42.95a24.85 24.85 0 0 1-2.95-30.32l29.47-41.26a19.01 19.01 0 0 1 2.95-3.79 248.35 248.35 0 0 1-26.53-64c-1.56.04-3.11-.1-4.63-.42l-50.11-8.42A24.86 24.86 0 0 1-.04 346.52v-60.63a24.84 24.84 0 0 1 19.37-23.58l50.11-8.42c1.54-.19 3.09-.19 4.63 0a248.87 248.87 0 0 1 26.53-64.42 20.09 20.09 0 0 1-2.95-3.79l-29.47-41.26a24.85 24.85 0 0 1 2.95-30.32l42.53-42.95a24.87 24.87 0 0 1 30.32-2.53l41.26 29.05c1.39.81 2.66 1.8 3.79 2.95a248.7 248.7 0 0 1 63.58-26.53c-.2-1.54-.2-3.09 0-4.63l8.84-50.11A24.84 24.84 0 0 1 285.03-.02h60.63a24.84 24.84 0 0 1 23.58 19.37l8.42 50.11c.19 1.54.19 3.09 0 4.63a248.18 248.18 0 0 1 64.42 26.53 18.73 18.73 0 0 1 3.79-2.95l41.26-29.47a24.85 24.85 0 0 1 30.32 2.95l42.95 42.95c7.79 8.25 9 20.72 2.95 30.32l-29.47 41.26a19.69 19.69 0 0 1-2.95 3.79 248.35 248.35 0 0 1 26.53 64 18 18 0 0 1 4.63.42l50.11 8.42a24.84 24.84 0 0 1 19.37 23.58h.42Zm-208.42 30.32c0-59.53-48.26-107.79-107.79-107.79S208 256.68 208 316.21 256.26 424 315.79 424c59.53 0 107.79-48.26 107.79-107.79Z" fill="currentColor"/></svg>