<svg xmlns="http://www.w3.org/2000/svg" width="100" height="90" fill="none"><path fill="currentColor" d="M44.104 4.04c2.757-4.423 9.285-4.352 11.92.214l43.034 74.535c2.677 4.638-.67 10.435-6.025 10.435H6.967c-5.355 0-8.702-5.797-6.025-10.435L43.975 4.254l.129-.214Zm8.478 2.201c-1.148-1.987-4.017-1.987-5.164 0L4.385 80.777c-1.112 1.925.2 4.317 2.37 4.465l.212.007h86.066l.213-.007c2.1-.143 3.395-2.388 2.47-4.277l-.1-.188L52.581 6.24Z"/><path fill="currentColor" d="M40.85 27.152h17.756l-1.51 34H42.361l-1.511-34Zm-.377 44.805c0-5.289 3.778-8.235 9.293-8.235 5.44 0 9.218 2.946 9.218 8.235 0 5.29-3.778 8.16-9.218 8.16-5.515 0-9.293-2.87-9.293-8.16Z"/></svg>