<svg data-name="Layer 1" xmlns="http://www.w3.org/2000/svg" viewBox="0 0 132.48 111.66"><path d="M132.48 81.38c0 .25-.03.5-.08.74l-.03.12-.06.23-.04.13a1.8 1.8 0 0 1-.08.21l-.06.12-.1.2-.08.15-.09.15-.09.13-.12.17-.09.11-.14.16-.1.1-.16.14-.12.1-.15.11-.13.09-.15.09-.16.09-.16.08-.16.07-.15.06-.18.06-.27.07a.19.19 0 0 0-.07.02l-.37.06-.39.02H77.6v7.57l23.51 11.75c3.57 1.79 2.3 7.17-1.69 7.17H33.07c-3.99 0-5.26-5.38-1.69-7.17l23.51-11.75v-7.57H3.79l-.39-.02a3.68 3.68 0 0 1-.49-.09L2.72 85l-.16-.05a1.34 1.34 0 0 1-.18-.07l-.13-.06-.19-.09-.13-.07-.18-.11-.12-.08a4.09 4.09 0 0 1-.86-.83l-.07-.09-.05-.07-.05-.08-.11-.18-.07-.13a3.44 3.44 0 0 1-.09-.19l-.06-.13-.07-.18-.05-.16-.05-.19-.04-.14-.05-.35-.02-.39V0h132.48v81.38ZM5.68 66.24h121.13V5.68H5.68v60.56Z" fill="currentColor" fill-rule="evenodd"/></svg>