<svg data-name="Layer 1" xmlns="http://www.w3.org/2000/svg" viewBox="0 0 65.06 121.44"><path d="M65.06 101.2H41.93v5.78l17.96 8.98c2.73 1.37 1.76 5.48-1.29 5.48H7.92c-3.05 0-4.02-4.11-1.29-5.48l17.96-8.98v-5.78H2.61l-.29-.06-.09-.02-.18-.05-.1-.03-.16-.06-.09-.04-.15-.07-.11-.06-.12-.07-.1-.07-.13-.1-.09-.07-.12-.11-.07-.07-.11-.12a.55.55 0 0 1-.07-.09l-.09-.12-.07-.1-.07-.12-.06-.11-.06-.12a1.63 1.63 0 0 1-.06-.13l-.04-.12-.05-.14a3.23 3.23 0 0 1-.11-.54l-.02-.3V2.89l.02-.3A2.88 2.88 0 0 1 2.6.02L2.9 0h62.17v101.2ZM4.34 86.74h56.38V4.34H4.34v82.41Z" fill="currentColor" fill-rule="evenodd"/></svg>