<?xml version="1.0" encoding="UTF-8"?>
<svg id="Layer_1" data-name="Layer 1" xmlns="http://www.w3.org/2000/svg" viewBox="0 0 49.03 33.38">
  <path d="M12.13,33.38h24.78c6.69,0,12.13-5.44,12.13-12.13v-9.13c0-6.69-5.44-12.13-12.13-12.13H12.13C5.44,0,0,5.44,0,12.13v9.13c0,6.69,5.44,12.13,12.13,12.13Z" fill="#fff"/>
  <g>
    <path d="M36.91,1.8H12.13C6.43,1.8,1.8,6.43,1.8,12.13v9.13c0,5.69,4.63,10.33,10.33,10.33h24.78c5.69,0,10.33-4.63,10.33-10.33v-9.13c0-5.69-4.63-10.33-10.33-10.33ZM13.13,27.66c-.45.44-.97.66-1.56.66-.62,0-1.15-.22-1.59-.66s-.66-.97-.66-1.58.22-1.15.66-1.59c.44-.44.97-.66,1.59-.66s1.12.22,1.56.65c.44.43.66.96.66,1.59s-.22,1.15-.67,1.59ZM13.05,21.51c-.02.33-.29.6-.63.6h-1.75c-.34,0-.61-.26-.63-.6l-.81-15.79c-.02-.36.27-.66.63-.66h3.4c.36,0,.65.3.63.66l-.84,15.79ZM44.82,21.25c0,4.37-3.55,7.92-7.92,7.92h-16.26V4.21h16.26c4.37,0,7.92,3.55,7.92,7.92v9.13Z" fill="#df1931"/>
    <path d="M43.02,19.4s.05-.07.04-.11c-.01-.04-.05-.07-.09-.08-.5-.06-1.02-.09-1.55-.09-2.66,0-5.11.77-6.55,1.31.88-.5,2.13-1.29,3.37-2.46,2.13-2,3.53-4.44,4.18-7.23,0-.04,0-.09-.04-.11-.04-.03-.08-.03-.12,0-4.97,2.99-7.52,7.31-8.56,9.17.29-.84.67-2.2.84-3.96.3-3.08-.17-6.22-1.39-9.33-.02-.04-.06-.07-.1-.07s-.08.03-.1.07c-1.21,3.11-1.68,6.25-1.38,9.33.17,1.76.56,3.12.84,3.96-1.04-1.86-3.59-6.18-8.56-9.17-.04-.02-.08-.02-.12,0-.04.03-.05.07-.04.11.64,2.8,2.05,5.23,4.18,7.23,1.24,1.17,2.49,1.96,3.37,2.46-1.44-.54-3.89-1.31-6.55-1.31-.53,0-1.05.03-1.55.09-.04,0-.08.04-.09.08-.01.04,0,.09.04.11,2.02,1.66,4.26,2.5,6.65,2.5.64,0,1.2-.06,1.65-.13-1.14.42-3,1.29-4.51,3.11-.03.04-.03.09,0,.13.02.04.07.06.12.05,1.81-.45,3.29-1.07,4.39-1.82.83-.57,1.24-1.09,1.43-1.35.02.49-.02,1.72-.04,2.37q-.03.82,0,.86c.04.05.18.13.28.13.08,0,.25-.06.29-.15t0-.8c-.02-.66-.06-1.92-.04-2.41.19.26.6.77,1.43,1.35,1.1.76,2.58,1.37,4.39,1.82.05.01.09,0,.12-.05.02-.04.02-.09,0-.13-1.52-1.83-3.37-2.69-4.51-3.11.44.07,1,.13,1.65.13,2.39,0,4.63-.84,6.65-2.5Z" fill="#df1931"/>
  </g>
</svg>