<?xml version="1.0" encoding="UTF-8"?>
<svg id="Layer_1" data-name="Layer 1" xmlns="http://www.w3.org/2000/svg" viewBox="0 0 294.75 294.69">
  <path d="M291.17,139.14C247.78,95.81,202.15,50.21,155.55,3.58c-2.38-2.38-5.11-3.58-8.13-3.58-2.08,0-5.17.62-8.1,3.55C94.69,48.19,48.99,93.83,3.49,139.23.61,142.1,0,145.17,0,147.24c0,2.99,1.19,5.7,3.55,8.05,31.23,31.19,84.15,84.08,114.05,113.97q22.29,22.28,22.41,22.39c2.02,1.96,4.65,3.04,7.41,3.04s5.48-1.12,7.51-3.15l35.27-35.25c33.65-33.62,67.44-67.39,100.95-100.83,2.39-2.39,3.61-5.14,3.61-8.17,0-2.09-.62-5.2-3.58-8.15Z" fill="#fff"/>
  <g>
    <path d="M146.96,284.48c-.2-.19-91.07-91.03-136.35-136.26-.71-.71-.89-1.08-.06-1.91C55.86,101.11,101.14,55.88,146.39,10.62c.88-.88,1.27-.79,2.09.03,45.19,45.21,90.39,90.4,135.63,135.56.9.9.83,1.32-.03,2.17-45.25,45.15-91.01,90.9-136.23,136.08-.31.31-.6.29-.88,0ZM147.23,17.64c-.26.35-.46.7-.74.98C103.9,61.17,61.32,103.72,18.71,146.24c-.8.8-.86,1.16-.02,2,42.57,42.5,85.12,85.03,127.65,127.58.83.83,1.21.9,2.09.02,42.53-42.54,85.1-85.05,127.68-127.55.8-.8.86-1.16.02-2-42.57-42.5-85.12-85.03-127.67-127.56-.23-.23-.45-.46-.68-.68-.11-.1-.23-.18-.54-.42Z" fill="#fe0202"/>
    <path d="M162.52,170.19c0,6.59-.01,13.18.02,19.78,0,.87-.13,1.24-1.13,1.2-2.32-.09-4.64-.07-6.96,0-.92.03-1.21-.2-1.2-1.17.05-4.87,0-9.75.04-14.62,0-.87-.18-1.16-1.11-1.15-4.96.05-9.92.04-14.87,0-.84,0-1.08.22-1.07,1.07.04,4.91,0,9.83.04,14.74,0,.88-.18,1.16-1.11,1.13-2.44-.08-4.88-.05-7.32,0-.69.01-.85-.21-.85-.87.02-13.42.02-26.85,0-40.27,0-.7.22-.86.88-.85,2.48.04,4.96.06,7.44,0,.86-.02.97.31.96,1.03-.02,4.79.01,9.59-.04,14.38,0,.94.24,1.19,1.18,1.18,4.88-.05,9.76-.05,14.63,0,.96.01,1.28-.18,1.26-1.21-.06-4.75,0-9.51-.05-14.26,0-.91.24-1.14,1.13-1.11,2.36.07,4.72.08,7.08,0,.95-.03,1.09.29,1.08,1.14-.03,6.63-.02,13.26-.02,19.9Z" fill="#fe0202"/>
    <path d="M192.37,191.86c-11.03.03-20.18-7.73-21.45-18.19-1.46-12,5.02-22.02,16.21-24.54,7.76-1.75,15.01-.49,21.17,4.99.65.57.83.93.14,1.66-1.59,1.69-3.09,3.45-4.56,5.24-.52.64-.82.56-1.38.07-2.59-2.24-5.48-3.83-8.99-4.06-6.6-.43-12.16,4.2-13.01,10.8-.43,3.35.02,6.53,1.7,9.48,3.37,5.92,10.8,7.81,17.02,4.36,1.33-.74,2.57-1.63,3.66-2.69.55-.54.85-.43,1.33.07,1.49,1.56,2.99,3.11,4.56,4.6.63.6.51.93-.04,1.49-4.57,4.61-9.6,6.7-16.35,6.71Z" fill="#fe0202"/>
    <path d="M102.43,149.19c5.44,0,10.87.02,16.31-.02.88,0,1.16.18,1.13,1.1-.08,2.15-.07,4.31,0,6.47.02.83-.27.99-1.02.98-3.56-.03-7.12.02-10.67-.04-.92-.02-1.11.25-1.1,1.13.03,10.35,0,20.69.05,31.04,0,1.14-.34,1.36-1.38,1.33-2.2-.08-4.4-.08-6.59,0-1.02.04-1.34-.18-1.33-1.28.05-10.23.03-20.45.03-30.68,0-1.71.21-1.5-1.55-1.51-3.4-.01-6.8-.03-10.19.02-.84.01-1.09-.23-1.06-1.07.06-2.08.07-4.16,0-6.23-.04-.97.19-1.27,1.22-1.26,5.4.06,10.79.03,16.19.03Z" fill="#fe0202"/>
    <path d="M147.41,77.26c1.48,0,2.96.04,4.44-.02.7-.03.9.22.84.88-.28,2.7-.53,5.4-.81,8.1-.61,5.79-1.25,11.59-1.83,17.38-.1,1-.26,1.38-1.43,1.36-1.03-.02-2.11,0-3.15.02-.5.01-.67-.17-.73-.68-.62-5.95-1.26-11.91-1.9-17.86-.28-2.66-.55-5.32-.84-7.98-.1-.86.03-1.32,1.1-1.24,1.43.11,2.88.03,4.31.03Z" fill="#fe0202"/>
    <path d="M147.4,109.62c1.36,0,2.71.03,4.07-.01.57-.02.75.16.74.73-.03,2.71-.03,5.42,0,8.13,0,.56-.13.76-.72.75-2.75-.03-5.51-.03-8.26,0-.56,0-.77-.14-.76-.73.03-2.71.02-5.42,0-8.13,0-.57.17-.76.75-.75,1.4.04,2.79.01,4.19.01Z" fill="#fe0202"/>
  </g>
</svg>