<?xml version="1.0" encoding="UTF-8"?>
<svg id="Layer_1" data-name="Layer 1" xmlns="http://www.w3.org/2000/svg" viewBox="0 0 68.06 57.74">
  <path d="M32.9,2.27L1.82,54.12c-.52.87.11,1.99,1.12,1.99h62.16c1.02,0,1.65-1.11,1.12-1.99L35.15,2.27c-.51-.85-1.74-.85-2.25,0Z" fill="#ffd600"/>
  <path d="M65.11,57.74H2.95c-1.06,0-2.04-.57-2.57-1.5-.52-.92-.51-2.06.04-2.97L31.5,1.43c.54-.9,1.48-1.43,2.53-1.43s1.99.54,2.53,1.43l31.08,51.85c.54.91.56,2.05.04,2.97-.52.92-1.51,1.5-2.57,1.5ZM3.52,54.47h61.01L34.03,3.58,3.52,54.47Z" fill="#101820"/>
  <g>
    <path d="M19.99,51.71v-7.75h-2.8v-2.25h8.17v2.25h-2.79v7.75h-2.58Z" fill="#101820"/>
    <path d="M33.33,51.71v-4.02h-4.15v4.02h-2.58v-10h2.58v3.73h4.15v-3.73h2.58v10h-2.58Z" fill="#101820"/>
    <path d="M37.19,46.71c0-3.09,2.34-5.17,5.34-5.17,2.49,0,3.78,1.36,4.44,2.68l-2.22,1.05c-.33-.79-1.18-1.46-2.22-1.46-1.56,0-2.71,1.26-2.71,2.9s1.16,2.89,2.71,2.89c1.04,0,1.89-.66,2.22-1.46l2.22,1.05c-.65,1.29-1.95,2.69-4.44,2.69-3,0-5.34-2.1-5.34-5.17Z" fill="#101820"/>
    <path d="M49.19,49.07c.76,0,1.41.64,1.41,1.41s-.65,1.39-1.41,1.39-1.39-.64-1.39-1.39.63-1.41,1.39-1.41ZM48.17,48.21l-.36-6.51h2.76l-.34,6.51h-2.05Z" fill="#101820"/>
  </g>
  <g>
    <path d="M36.06,27.26s0,0,0,0c0,0,.02-.03,0,0Z" fill="#101820"/>
    <path d="M35.24,31.66s0,0,.01,0c0,0,0,0-.01,0Z" fill="#101820"/>
    <path d="M46.82,32.25c-.63.08-2.38.38-2.43.42,0-.07-.03-.14.01-.2-.36.03-.71.08-.98.34-.05,0-.03-.05-.05-.08-.02-.04.04-.1-.02-.14,0,0-.03,0-.04,0,0,0-.01,0-.02,0-.3.02-.57.11-.79.32-.03-.08-.08-.14-.07-.23-.39.09-.76.17-1.01.52-.06-.09-.1-.18-.13-.28-.39.08-.77.16-1.05.47-.05-.09-.13-.16-.2-.24-.38.12-.75.22-1.02.54-.07-.09-.12-.18-.18-.27-.32.1-.59.3-.84.52-.02-.08-.07-.15-.08-.24-.34.08-.52.33-.83.47,0-.11-.03-.21-.04-.32-.07.22-.52.56-.67.67-.46.33-1.85.63-2.06.64.08-.08.99-.67,1.32-.84.26-.13.66-.24.91-.31.08-.02.18,0,.19-.08,0-.04-.08-.04-.08-.09.43-.08.78-.27,1.16-.47-.06-.08-.15-.13-.2-.21.25-.03.55-.11.77-.22s.35-.16.49-.34c-.09-.03-.14-.09-.22-.14-.03-.02-.05-.02-.06-.06.31-.05.55-.18.83-.33,0,0,.01,0,.01,0,.13-.06.2-.14.25-.27-.13-.03-.22-.09-.3-.2.23,0,.51-.08.68-.19.24-.14.35-.25.47-.47-.07,0-.08-.02-.14-.06-.06-.03-.15-.1-.2-.16.47-.1.87-.28,1-.78-.12-.02-.21-.08-.29-.17.43-.08.74-.26.83-.7-.03,0-.04.01-.07,0-.04-.01-.09-.02-.14-.04-.07-.03-.15-.08-.21-.14.5-.12.76-.36.97-.82-.16-.03-.28-.09-.4-.19.41-.1.59-.3.69-.7-.19,0-.34-.05-.49-.15.37-.1.54-.36.65-.72-.16,0-.3,0-.44-.09.42-.15.49-.44.48-.86-.14,0-.26,0-.39-.06.27-.12.24-.34.28-.6.01-.08.03-.14-.02-.21-.08.02-.15.02-.22-.03.08-.06.13-.1.14-.2.03-.23-.01-.47-.01-.72,0-.04,0-.1,0-.16.02-.21.04-.39.07-.61.03-.22.15-.47.17-.69,0-.05,0-.1-.04-.12-.05-.02-.08,0-.12.04-.17.15-.31.4-.43.58-.11.18-.18.34-.28.51-.03.05-.05.09-.07.12-.12.18-.25.31-.35.49-.04.08-.03.17,0,.26-.08-.03-.13-.09-.17-.17-.08.02-.09.05-.12.13-.12.22-.26.35-.18.62-.12-.08-.2-.19-.28-.31-.29.26-.43.5-.33.89-.14-.07-.22-.2-.3-.33-.22.28-.33.54-.23.89-.16-.09-.28-.2-.37-.36-.28.26-.36.52-.27.9-.14-.06-.26-.14-.35-.27-.32.36-.42.67-.32,1.15-.07-.03-.15-.09-.21-.14-.04-.03-.06-.08-.09-.11s-.02-.04-.03-.07c-.36.23-.41.58-.33.98-.11-.04-.2-.1-.26-.2-.41.27-.45.68-.37,1.13-.07-.03-.16-.08-.21-.13-.05-.04-.08-.04-.1-.11-.16.18-.22.31-.27.56-.04.19-.06.46,0,.67-.12-.03-.21-.1-.27-.21-.1.07-.14.18-.17.3,0,0,0,0,0,.01-.07.3-.18.57-.15.89-.03,0-.12-.12-.17-.18-.13.16-.26,1.08-.24,1.31-.09-.02-.16-.07-.24-.09-.13.36-.19.8-.21,1.19-.04.02-.18-.16-.17-.13.01.08-.72,2.02-.85,2.04.02-.16.12-.65.13-.74.03-.63.77-2.36.88-2.44-.07,0-.12-.01-.18-.05.16-.22.27-.42.35-.68.02-.07.05-.14.07-.23.02-.1.08-.25.05-.36-.07.04-.15.04-.24.02,0-.08.05-.09.09-.15.26-.34.36-.71.41-1.13-.12-.01-.23.02-.34-.03.2-.28.38-.56.51-.88,0,0,0,0,0-.01.07-.16.1-.31.08-.49-.05.01-.1.04-.16.04,0,0-.01,0-.03,0-.02,0-.1,0-.12-.03.09-.09.26-.31.31-.39,0,0,0-.01.01-.02.19-.33.28-.62.28-.99-.14.04-.27.06-.41.05.27-.34.43-.65.48-1.09.02-.15.03-.32-.02-.47-.15.08-.29.12-.47.12.02-.1.1-.1.15-.18.15-.21.21-.44.26-.7.03-.17.06-.36,0-.54-.11.06-.21.13-.34.15,0,0-.02,0-.03,0-.04,0-.14.01-.08-.06.28-.34.4-.75.34-1.19-.09.05-.21.12-.31.14-.1.03-.16.02-.25.03,0-.02,0-.03,0-.04.26-.26.31-.63.34-.99.01-.16.02-.34-.06-.49-.11.05-.2.12-.33.14,0,0,0,0-.02,0-.02,0-.08.02-.11.01.09-.19.19-.34.22-.56.04-.22.07-.47,0-.7-.19.03-.36.12-.55.14.29-.42.34-.95.18-1.43-.05.05-.09.08-.16.11-.07.03-.17.05-.25.07-.02,0-.07.01-.07-.01.27-.39.26-.85.05-1.27-.09.06-.19.08-.3.1.18-.31.14-.63.12-.98-.08.03-.17.15-.26.14.12-.22.15-.48.13-.73,0,0,0-.01,0-.01-.11-.76-.45-1.45-.58-2.2,0,0,0,0,0,0-.13.75-.47,1.45-.58,2.2,0,0,0,0,0,.01-.01.25.01.5.13.73-.09.01-.18-.11-.26-.14-.02.34-.06.67.12.98-.11-.01-.2-.04-.3-.1-.21.42-.22.88.05,1.27,0,.02-.05.02-.07.01-.08-.02-.18-.04-.25-.07-.07-.03-.11-.06-.16-.11-.16.48-.11,1.01.18,1.43-.19-.02-.36-.12-.55-.14-.06.22-.04.48,0,.7.04.22.13.37.22.56-.03,0-.09-.01-.11-.01-.02,0-.01,0-.02,0-.12-.03-.21-.1-.33-.14-.08.15-.07.33-.06.49.03.36.08.73.34.99,0,.01,0,.03,0,.04-.09-.01-.15,0-.25-.03-.1-.03-.21-.09-.31-.14-.07.44.06.85.34,1.19.06.07-.05.06-.08.06,0,0-.02,0-.03,0-.13-.02-.23-.08-.34-.15-.06.18-.03.37,0,.54.05.26.11.49.26.7.06.08.13.09.15.18-.17,0-.31-.04-.47-.12-.05.15-.04.32-.02.47.05.44.22.75.48,1.09-.15.01-.27,0-.41-.05,0,.37.09.66.28.99,0,0,0,0,.01.02.05.08.22.3.31.39-.02.03-.1.02-.12.03-.02,0-.03,0-.03,0-.06,0-.1-.03-.16-.04-.02.17,0,.33.08.49,0,0,0,.01,0,.01.13.32.31.6.51.88-.11.05-.23.01-.34.03.04.42.15.79.41,1.13.04.06.1.07.09.15-.08.02-.16.02-.24-.02-.03.11.03.26.05.36.02.1.05.16.07.23.08.26.19.47.35.68-.06.04-.11.05-.18.05.11.08.84,1.81.88,2.44,0,.1.1.59.13.74-.12-.02-.86-1.96-.85-2.04,0-.04-.13.14-.17.13-.02-.39-.09-.82-.21-1.19-.09.02-.15.08-.24.09.02-.23-.11-1.15-.24-1.31-.05.06-.14.18-.17.18.03-.32-.08-.58-.15-.89,0,0,0-.01,0-.01-.03-.12-.07-.23-.17-.3-.07.11-.15.18-.27.21.06-.21.04-.48,0-.67-.05-.25-.11-.38-.27-.56-.02.06-.05.06-.1.11-.05.04-.14.1-.21.13.08-.46.04-.86-.37-1.13-.07.1-.15.16-.26.2.07-.4.03-.75-.33-.98,0,.03,0,.04-.03.07-.03.03-.05.07-.09.11-.06.05-.13.11-.21.14.1-.48,0-.79-.32-1.15-.09.13-.2.2-.35.27.08-.38,0-.64-.27-.9-.09.16-.21.27-.37.36.09-.35-.02-.61-.23-.89-.09.13-.16.26-.3.33.1-.39-.04-.64-.33-.89-.08.12-.16.22-.28.31.08-.27-.06-.4-.18-.62-.04-.07-.04-.11-.12-.13-.04.07-.09.13-.17.17.02-.09.04-.18,0-.26-.1-.18-.23-.32-.35-.49-.02-.03-.05-.07-.07-.12-.1-.17-.16-.33-.28-.51-.11-.18-.26-.43-.43-.58-.04-.04-.08-.06-.12-.04-.05.02-.05.06-.04.12.02.23.14.48.17.69.03.22.05.4.07.61,0,.05,0,.12,0,.16,0,.25-.04.48-.01.72.01.1.06.15.14.2-.07.05-.14.05-.22.03-.05.07-.04.13-.02.21.04.26,0,.47.28.6-.13.06-.25.06-.39.06,0,.42.06.7.48.86-.14.09-.28.08-.44.09.11.36.28.62.65.72-.15.11-.3.16-.49.15.1.4.28.6.69.7-.12.1-.24.17-.4.19.21.47.46.71.97.82-.06.06-.14.1-.21.14-.05.02-.1.03-.14.04-.04.01-.04,0-.07,0,.1.44.41.62.83.7-.08.09-.17.15-.29.17.13.5.52.69,1,.78-.05.06-.14.12-.2.16-.06.03-.07.06-.14.06.13.22.24.34.47.47.18.1.46.19.68.19-.08.11-.17.17-.3.2.05.13.12.21.25.27,0,0,0,0,.01,0,.27.14.51.28.83.33-.01.03-.03.04-.06.06-.07.05-.13.11-.22.14.13.18.27.24.49.34.21.11.51.19.77.22-.05.08-.14.13-.2.21.38.2.74.39,1.16.47,0,.05-.09.05-.08.09,0,.07.11.05.19.08.24.08.65.18.91.31.33.17,1.24.76,1.32.84-.22-.01-1.6-.32-2.06-.64-.15-.11-.61-.45-.67-.67,0,.11-.03.21-.04.32-.3-.14-.49-.4-.83-.47,0,.09-.06.16-.08.24-.26-.22-.52-.42-.84-.52-.06.09-.12.18-.18.27-.27-.32-.64-.41-1.02-.54-.06.09-.14.15-.2.24-.28-.31-.66-.39-1.05-.47-.03.1-.06.2-.13.28-.24-.34-.62-.43-1.01-.52,0,.09-.04.15-.07.23-.22-.21-.49-.3-.79-.32,0,0,0,0-.02,0,0,0-.03,0-.04,0-.06.04,0,.09-.02.14-.02.03,0,.08-.05.08-.27-.26-.62-.31-.98-.34.04.07.02.13.01.2-.05-.04-1.8-.34-2.43-.42-.04,0-.06.05-.02.07.43.2,1.09.58,1.54.85.33.2.59.44.99.5.01.08-.02.11-.09.13.34.41.84.49,1.35.49.07.18-.24.15,0,.34.24.19.84.29,1.19.21.06.11,0,.17-.07.26.38.31.83.36,1.31.31.05.06.06.11.04.18,0,.02-.06.05-.06.06.05.12.22.1.33.12.2.03.45,0,.64-.01.1,0,.03.19.01.23.28.2.62.13.94.05.06.05.03.14.02.2.35.11.7-.06,1.04-.16.05.03.07.05.06.11,0,0,0,0,.02,0,.51-.09.93-.41,1.44-.55.17-.04,1.21-.23,1.46-.24.09,0,.2-.01.29,0-.09.22-.61.52-1.18.54.03.07.08.12.11.13-.46.02-1.24.08-1.59.08.04.07.08.17.11.19-.47.02-1.11.15-1.29.14,0,.05.1.24.15.26-.42.03-.94.23-1.14.24.05.05.17.23.15.34-.37.07-.84.32-.97.44.19.02.2.24.14.33-.06.09-.73.58-.99,1.07-.01.02.01.04.03.03.24-.11.84-.52,1.24-.65.2-.06.25.16.22.27.29-.16.83-.51.87-.67.08,0,.16.27.09.37.23-.12.79-.62.88-.77.03-.03.15.17-.02.32.26-.08.94-.74.99-.86.05-.01.19.17.11.26.33-.17,1.16-.95,1.2-1.08.06.03.09.12.11.15.27-.29.68-.92.96-1.01,0,0,0,0,0,0,.01.86-.19,2.83-.21,3.69.09,0,.75,0,.84,0-.02-.87-.22-2.83-.21-3.69,0,0,0,0,0,0,.28.09.69.72.96,1.01.02-.04.05-.13.11-.15.04.13.86.91,1.2,1.08-.08-.09.05-.27.11-.26.05.12.73.78.99.86-.16-.15-.05-.35-.02-.32.09.15.65.66.88.77-.07-.1,0-.36.09-.37.04.16.58.51.87.67-.03-.11.03-.33.22-.27.4.14,1,.54,1.24.65.02,0,.04-.01.03-.03-.26-.49-.93-.98-.99-1.07-.06-.09-.05-.31.14-.33-.13-.12-.61-.38-.97-.44-.03-.11.1-.29.15-.34-.2-.01-.72-.21-1.14-.24.06-.02.16-.22.15-.26-.19.01-.82-.12-1.29-.14.03-.02.06-.12.11-.19-.35,0-1.13-.06-1.59-.08.02-.01.08-.06.11-.13-.56-.02-1.09-.32-1.18-.54.09-.01.2,0,.29,0,.25.01,1.3.2,1.46.24.51.13.92.46,1.44.55,0,0,.02,0,.02,0,0-.06,0-.08.06-.11.34.1.69.27,1.04.16-.02-.07-.05-.16.02-.2.32.07.66.15.94-.05-.02-.03-.09-.23.01-.23.19.01.44.04.64.01.12-.02.29,0,.33-.12,0,0-.05-.04-.06-.06-.02-.07-.02-.12.04-.18.48.05.93,0,1.31-.31-.06-.09-.13-.15-.07-.26.35.08.95-.03,1.19-.21.24-.19-.08-.16,0-.34.5,0,1-.08,1.35-.49-.07-.02-.11-.05-.09-.13.4-.05.67-.3.99-.5.45-.27,1.11-.65,1.54-.85.04-.02.02-.07-.02-.07Z" fill="#101820"/>
    <path d="M32,27.27s0,0,0,0c-.01-.02,0,0,0,0Z" fill="#101820"/>
    <path d="M32.8,31.66s0,0,.01,0c0,0-.01,0-.01,0Z" fill="#101820"/>
  </g>
</svg>