<?xml version="1.0" encoding="UTF-8"?>
<svg id="Layer_1" data-name="Layer 1" xmlns="http://www.w3.org/2000/svg" viewBox="0 0 295.86 265.06">
  <defs>
    <style>
      .cls-1 {
        fill: #fff;
      }

      .cls-2 {
        fill: #006838;
      }
    </style>
  </defs>
  <polygon class="cls-1" points="147.51 216.34 252.35 31.6 43.41 31.6 147.51 216.34"/>
  <path class="cls-1" d="M293.82,7.45c-2.69-4.61-7.62-7.45-12.96-7.45H15C9.67,0,4.74,2.83,2.05,7.43c-2.69,4.6-2.73,10.29-.12,14.93l132.46,235.06c2.65,4.71,7.64,7.63,13.04,7.64h.02c5.4,0,10.38-2.9,13.05-7.6L293.9,22.4c2.63-4.64,2.6-10.34-.08-14.95ZM285.98,25.02l-127.21,224.15c-2.31,4.07-6.63,6.58-11.31,6.58h-.02c-4.69,0-9.01-2.54-11.31-6.62L9.83,24.98c-2.27-4.02-2.23-8.95.1-12.94,2.33-3.99,6.6-6.44,11.22-6.44h253.52c4.63,0,8.91,2.46,11.23,6.46,2.33,4,2.36,8.93.07,12.96Z"/>
  <path class="cls-2" d="M150.67,129.96c2.46.62,7.93,8.06,7.93,8.06v-2.48l4.29,4.19-.21-1.78,3.66,3.72-.14-1.63,5.07,3.33v-1.09c5.06,1.55,9.15,6.74,9.15,6.74-1.2-4.73-6.97-9.38-6.97-9.38l.63-.46-4.29-1.94.7-.93-3.45-1.01.77-.62-4.15-1.16.64-1.08-3.52-.16.28-1s-1.2.39-2.39-.08c-1.19-.47-4.15-1.4-4.15-1.4,4.86-.93,9.5.62,9.5.62l-.07-1,3.73,1.32-.14-1.08,3.52.93-.35-1.08,4.43.85-1.2-1.4,4.64.62-.84-1.55h4.5l-1.27-1.7,3.73.08-.07-1.16h2.6l-.85-1.16,3.94-.62-1.12-1.32c1.48-.39,4.36-.93,4.36-.93l-.77-.93c1.9-.7,8.44-3.25,8.44-3.25-3.02-.47-9.08,1.08-9.08,1.08l-.07-1.16-4.5,1.55.28-1.24-4.5,1.32.63-1.24-3.94,1.39.28-1.24-4.01,1.94.42-1.4-3.87,2.25.21-1.16-3.8,2.1.28-1.24-3.45,2.33.28-1.01-3.8,2.94.14-1.16s-1.62,2.02-3.31,2.95c-1.69.93-7.67,2.56-7.67,2.56,0,0,4.64-5.35,7.04-6.82,2.39-1.47,6.89-3.64,6.89-3.64l-1.62-.62,4.36-1.78-1.55-.62,5.07-1.71-2.04-.93c1.69-.16,5-2.4,5-2.4l-1.34-.7c2.18-.54,4.22-2.64,4.22-2.64l-1.34-.85c1.62-.39,3.17-2.4,3.17-2.4l-1.55-.46c1.83-.54,3.38-2.94,3.38-2.94l-2.18-.54c1.97-.46,3.94-2.86,3.94-2.86l-2.11-.54c1.48-.54,3.31-2.64,3.31-2.64l-1.48-.38c1.62-1.01,3.17-3.49,3.17-3.49l-1.76-.7c2.18-.92,3.03-2.55,3.03-2.55l-1.34-.39,2.46-1.32-.91-.62,2.32-2.24-1.48.15c.78-1.71,2.46-3.57,2.46-3.57l-.63-.46,7.39-8.06c-3.87,1.24-9.5,6.82-9.5,6.82l-.14-1.32c-.92.62-2.74,3.33-2.74,3.33l.07-1.16c-1.62,1.01-3.17,3.49-3.17,3.49l-.14-1.16c-1.48,1.09-2.68,3.87-2.68,3.87l-.14-1.63c-1.55,1.16-2.74,3.64-2.74,3.64l-.28-1.24c-2.18,1.55-2.88,4.49-2.88,4.49l-.35-1.63-2.6,4.26-.56-1.16-1.27,4.57-.63-1.63-1.97,4.41-.42-1.63-1.62,4.19-.7-1.09-1.55,5.42-.7-1.39-1.06,4.65-.84-.54-.42,4.88-.99-.54-.07,4.49-1.2-.54c-.84,4.77-5.96,11.86-5.96,11.86v-6.28c0-2.48,4.55-8.68,4.55-8.68l-1.41.23,2.95-5.35-1.26-.08,1.97-3.47-1.13.21,2.18-4.65-1.05.18,1.48-4.67-1.48.48.84-4.67-.84-.29.42-3.5-1.47.62,1.33-4.5-2.25,1.16,1.48-5.89-1.12.93.49-4.65-1.76.78,1.05-5.58-1.62.39,1.12-3.8-1.69.62.56-4.5-1.2.47.07-4.57-1.12.78.07-4.57-1.12.23.56-3.95-.92.31-1.4-11.55-1.41,11.55-.92-.31.56,3.95-1.13-.23.07,4.57-1.12-.78.07,4.57-1.2-.47.56,4.5-1.69-.62,1.13,3.8-1.62-.39,1.05,5.58-1.76-.78.49,4.65-1.13-.93,1.48,5.89-2.25-1.16,1.34,4.5-1.48-.62.42,3.5-.84.29.84,4.67-1.48-.48,1.48,4.67-1.05-.18,2.18,4.65-1.13-.21,1.97,3.47-1.27.08,2.95,5.35-1.41-.23s4.55,6.2,4.55,8.68v6.28s-5.12-7.09-5.96-11.86l-1.2.54-.07-4.49-.99.54-.42-4.88-.85.54-1.05-4.65-.71,1.39-1.55-5.42-.7,1.09-1.62-4.19-.42,1.63-1.97-4.41-.63,1.63-1.27-4.57-.56,1.16-2.6-4.26-.35,1.63s-.71-2.94-2.88-4.49l-.28,1.24s-1.19-2.48-2.74-3.64l-.14,1.63s-1.2-2.79-2.68-3.87l-.14,1.16s-1.55-2.48-3.17-3.49l.07,1.16s-1.83-2.72-2.75-3.33l-.14,1.32s-5.63-5.58-9.5-6.82l7.39,8.06-.63.46s1.69,1.86,2.46,3.57l-1.48-.15,2.32,2.24-.92.62,2.46,1.32-1.34.39s.84,1.63,3.02,2.55l-1.76.7s1.54,2.48,3.16,3.49l-1.48.38s1.83,2.1,3.31,2.64l-2.11.54s1.97,2.4,3.94,2.86l-2.18.54s1.55,2.4,3.38,2.94l-1.55.46s1.55,2.01,3.17,2.4l-1.34.85s2.04,2.09,4.22,2.64l-1.34.7s3.31,2.25,5,2.4l-2.04.93,5.07,1.71-1.55.62,4.36,1.78-1.62.62s4.5,2.17,6.9,3.64c2.39,1.47,7.04,6.82,7.04,6.82,0,0-5.98-1.63-7.67-2.56-1.69-.93-3.31-2.95-3.31-2.95l.14,1.16-3.8-2.94.28,1.01-3.45-2.33.28,1.24-3.8-2.1.21,1.16-3.87-2.25.42,1.4-4.01-1.94.28,1.24-3.94-1.39.63,1.24-4.5-1.32.28,1.24-4.5-1.55-.07,1.16s-6.05-1.55-9.08-1.08c0,0,6.54,2.56,8.44,3.25l-.77.93s2.89.54,4.36.93l-1.13,1.32,3.94.62-.84,1.16h2.6l-.07,1.16,3.73-.08-1.27,1.7h4.5l-.84,1.55,4.64-.62-1.2,1.4,4.43-.85-.35,1.08,3.52-.93-.14,1.08,3.73-1.32-.07,1s4.64-1.55,9.5-.62c0,0-2.95.93-4.15,1.4-1.2.47-2.39.08-2.39.08l.28,1-3.52.16.63,1.08-4.15,1.16.78.62-3.45,1.01.71.93-4.29,1.94.63.46s-5.77,4.65-6.97,9.38c0,0,4.08-5.19,9.15-6.74v1.09l5.07-3.33-.14,1.63,3.66-3.72-.21,1.78,4.29-4.19v2.48s5.47-7.44,7.93-8.06v30.14c.66.02,1.32.05,1.99.05s1.33-.03,1.99-.05v-30.14Z"/>
  <path class="cls-2" d="M285.91,12.06c-2.33-4-6.61-6.46-11.23-6.46H21.16c-4.62,0-8.89,2.45-11.22,6.44-2.33,3.99-2.37,8.92-.1,12.94l126.31,224.15c2.3,4.08,6.62,6.61,11.31,6.62h.02c4.68,0,9-2.51,11.31-6.58L285.98,25.02c2.28-4.02,2.26-8.96-.07-12.96ZM147.51,216.34L43.41,31.6h208.94l-104.84,184.74Z"/>
</svg>